#define noname_width 17
#define noname_height 13
static char noname_bits[] = {
 0x00,0x30,0x00,0x00,0x33,0x00,0xb2,0xf7,0x00,0xbe,0xf7,0x00,0x0e,0xd1,0x00,
 0x82,0xdf,0x01,0x9e,0xdb,0x01,0x36,0x00,0x00,0x30,0x00,0x00,0x37,0x00,0x00,
 0x37,0x00,0x00,0x3e,0x00,0x00,0x0c,0x00,0x00};
